<svg xmlns="http://www.w3.org/2000/svg" viewBox="0 0 512 512" role="img" aria-label="PawStreak">
  <defs>
    <linearGradient id="bg" x1="0" y1="0" x2="1" y2="1">
      <stop offset="0%" stop-color="#1f1a17"/>
      <stop offset="100%" stop-color="#0a0908"/>
    </linearGradient>
  </defs>
  <rect width="512" height="512" rx="112" fill="url(#bg)"/>
  <g fill="#f97316">
    <ellipse cx="156" cy="198" rx="44" ry="52" transform="rotate(-18 156 198)"/>
    <ellipse cx="256" cy="162" rx="44" ry="52"/>
    <ellipse cx="356" cy="198" rx="44" ry="52" transform="rotate(18 356 198)"/>
    <ellipse cx="196" cy="118" rx="36" ry="44" transform="rotate(-32 196 118)"/>
    <ellipse cx="316" cy="118" rx="36" ry="44" transform="rotate(32 316 118)"/>
  </g>
  <path fill="#fff7ed" d="M176 286c18 56 48 86 80 86s62-30 80-86c-24 28-52 42-80 42s-56-14-80-42z"/>
  <circle cx="220" cy="318" r="14" fill="#9a3412"/>
  <circle cx="292" cy="318" r="14" fill="#9a3412"/>
  <ellipse cx="256" cy="346" rx="16" ry="11" fill="#c2410c"/>
</svg>
